# Blender v2.76 (sub 0) OBJ File: 'untitled.blend'
# www.blender.org
mtllib untitled.mtl
o Cube_Cube.001
v -4.132727 1.024555 1.048113
v -2.092636 2.465807 1.048113
v -4.132727 1.024555 -1.547003
v -2.092636 2.465807 -1.547003
v 0.338451 0.465807 1.048113
v -0.092636 2.465807 1.048113
v 0.338451 0.465807 -1.547003
v -0.092636 2.465807 -1.547003
v -4.132727 1.447122 1.048113
v -4.132727 1.447122 -1.547003
v 0.338451 1.447122 -1.547003
v 0.338451 1.447122 1.048113
v -5.043891 1.447122 -1.547003
v -5.043891 0.465807 -1.547003
v -5.043891 0.465807 1.048113
v -5.043891 1.447122 1.048113
v -0.646599 2.465807 -1.547003
v -0.899984 1.091347 -1.547003
v -0.646599 2.465807 1.048113
v -0.899984 1.091347 1.048113
v -0.899984 1.447122 1.048113
v -0.899984 1.447122 -1.547003
v -1.622874 0.426168 -1.547003
v -2.431060 0.438932 -1.547003
v -3.239246 0.451696 -1.547003
v -0.969955 2.465807 1.048113
v -1.331464 2.465807 1.048113
v -1.692973 2.465807 1.048113
v -1.622874 1.447122 -1.547003
v -2.431060 1.447122 -1.547003
v -3.239246 1.447122 -1.547003
v -1.692973 2.465807 -1.547003
v -1.331464 2.465807 -1.547003
v -0.969955 2.465807 -1.547003
v -3.239246 0.451696 1.048113
v -2.431060 0.438932 1.048113
v -1.622874 0.426168 1.048113
v -3.239246 1.447122 1.048113
v -2.431060 1.447122 1.048113
v -1.622874 1.447122 1.048113
v -0.234721 2.465807 -1.547003
v 0.020807 0.449220 1.048113
v 0.020807 1.447122 1.048113
v 0.020807 0.449220 -1.547003
v -0.234721 2.465807 1.048113
v 0.020807 1.447122 -1.547003
v -4.850873 1.447122 -1.547003
v -4.850873 1.447122 1.048113
v -4.850873 0.426255 -1.547003
v -4.850873 0.426255 1.048113
v -0.363312 0.907488 -1.547003
v -0.565085 0.967643 -1.547003
v -0.406541 2.465807 1.048113
v -0.543834 2.465807 1.048113
v -0.363312 1.447122 -1.547003
v -0.670242 1.447122 -1.547003
v -0.543834 2.465807 -1.547003
v -0.406541 2.465807 -1.547003
v -0.565085 0.967643 1.048113
v -0.363312 0.907488 1.048113
v -0.670242 1.447122 1.048113
v -0.363312 1.447122 1.048113
vn 0.000000 1.000000 0.000000
vn -0.000000 0.000000 -1.000000
vn 1.000000 0.000000 0.000000
vn 0.000000 0.000000 1.000000
vn 0.052100 -0.998600 -0.000000
vn 0.920900 0.389700 0.000000
vn -0.446700 0.894700 0.000000
vn -1.000000 0.000000 0.000000
vn -0.200700 -0.979600 0.000000
vn 0.677100 -0.735900 -0.000000
vn -0.539700 -0.841800 0.000000
vn -0.015800 -0.999900 0.000000
vn -0.766400 -0.642400 0.000000
vn 0.640100 -0.768300 0.000000
vn -0.346500 -0.938100 0.000000
vn -0.285700 -0.958300 0.000000
usemtl None
s off
f 48//1 47//1 13//1 16//1
f 46//2 11//2 7//2 44//2
f 11//3 12//3 5//3 7//3
f 38//4 9//4 1//4 35//4
f 42//5 44//5 7//5 5//5
f 28//1 32//1 4//1 2//1
f 28//4 2//4 9//4 38//4
f 8//6 6//6 12//6 11//6
f 41//2 8//2 11//2 46//2
f 2//7 4//7 10//7 9//7
f 16//8 13//8 14//8 15//8
f 47//2 49//2 14//2 13//2
f 49//9 50//9 15//9 14//9
f 50//4 48//4 16//4 15//4
f 34//2 17//2 22//2 29//2
f 54//4 19//4 21//4 61//4
f 54//1 57//1 17//1 19//1
f 37//10 23//10 18//10 20//10
f 61//4 21//4 20//4 59//4
f 29//2 22//2 18//2 23//2
f 10//2 31//2 25//2 3//2
f 31//2 30//2 24//2 25//2
f 30//2 29//2 23//2 24//2
f 1//11 3//11 25//11 35//11
f 35//12 25//12 24//12 36//12
f 36//12 24//12 23//12 37//12
f 4//2 32//2 31//2 10//2
f 32//2 33//2 30//2 31//2
f 33//2 34//2 29//2 30//2
f 19//4 26//4 40//4 21//4
f 26//4 27//4 39//4 40//4
f 27//4 28//4 38//4 39//4
f 19//1 17//1 34//1 26//1
f 26//1 34//1 33//1 27//1
f 27//1 33//1 32//1 28//1
f 21//4 40//4 37//4 20//4
f 40//4 39//4 36//4 37//4
f 39//4 38//4 35//4 36//4
f 12//4 43//4 42//4 5//4
f 6//1 8//1 41//1 45//1
f 6//4 45//4 43//4 12//4
f 58//2 41//2 46//2 55//2
f 60//13 51//13 44//13 42//13
f 55//2 46//2 44//2 51//2
f 1//4 9//4 48//4 50//4
f 3//14 1//14 50//14 49//14
f 10//2 3//2 49//2 47//2
f 9//1 10//1 47//1 48//1
f 22//2 56//2 52//2 18//2
f 56//2 55//2 51//2 52//2
f 20//15 18//15 52//15 59//15
f 59//16 52//16 51//16 60//16
f 17//2 57//2 56//2 22//2
f 57//2 58//2 55//2 56//2
f 43//4 62//4 60//4 42//4
f 62//4 61//4 59//4 60//4
f 45//1 41//1 58//1 53//1
f 53//1 58//1 57//1 54//1
f 45//4 53//4 62//4 43//4
f 53//4 54//4 61//4 62//4
